<svg width="450" height="454" viewBox="0 0 450 454" fill="none" xmlns="http://www.w3.org/2000/svg">
<g filter="url(#filter0_d_63_2663)">
<rect x="40" y="10" width="350" height="354" rx="20" fill="white"/>
</g>
<path d="M86.632 213.624C85.32 213.624 84.088 213.448 82.936 213.096C81.8 212.744 80.832 212.24 80.032 211.584L81.088 209.328C81.92 209.952 82.784 210.416 83.68 210.72C84.592 211.008 85.584 211.152 86.656 211.152C87.84 211.152 88.752 210.944 89.392 210.528C90.048 210.112 90.376 209.528 90.376 208.776C90.376 208.136 90.072 207.648 89.464 207.312C88.872 206.96 87.888 206.632 86.512 206.328C84.368 205.864 82.808 205.264 81.832 204.528C80.856 203.792 80.368 202.72 80.368 201.312C80.368 200.304 80.64 199.408 81.184 198.624C81.728 197.84 82.496 197.224 83.488 196.776C84.496 196.328 85.656 196.104 86.968 196.104C88.168 196.104 89.304 196.288 90.376 196.656C91.464 197.008 92.352 197.504 93.04 198.144L92.008 200.4C90.488 199.184 88.808 198.576 86.968 198.576C85.864 198.576 84.992 198.808 84.352 199.272C83.712 199.72 83.392 200.336 83.392 201.12C83.392 201.792 83.672 202.304 84.232 202.656C84.808 203.008 85.784 203.336 87.16 203.64C88.584 203.976 89.744 204.344 90.64 204.744C91.536 205.128 92.224 205.632 92.704 206.256C93.184 206.864 93.424 207.632 93.424 208.56C93.424 209.584 93.152 210.48 92.608 211.248C92.064 212 91.28 212.584 90.256 213C89.232 213.416 88.024 213.624 86.632 213.624ZM106.685 207.504H98.3333C98.3973 208.8 98.7173 209.76 99.2933 210.384C99.8853 210.992 100.757 211.296 101.909 211.296C103.237 211.296 104.469 210.864 105.605 210L106.469 212.064C105.893 212.528 105.181 212.904 104.333 213.192C103.501 213.464 102.653 213.6 101.789 213.6C99.8053 213.6 98.2453 213.04 97.1093 211.92C95.9733 210.8 95.4053 209.264 95.4053 207.312C95.4053 206.08 95.6533 204.984 96.1493 204.024C96.6453 203.064 97.3413 202.32 98.2373 201.792C99.1333 201.248 100.149 200.976 101.285 200.976C102.949 200.976 104.261 201.52 105.221 202.608C106.197 203.68 106.685 205.16 106.685 207.048V207.504ZM101.357 203.136C100.557 203.136 99.9013 203.376 99.3893 203.856C98.8933 204.32 98.5733 205 98.4293 205.896H104.069C103.973 204.984 103.693 204.296 103.229 203.832C102.781 203.368 102.157 203.136 101.357 203.136ZM120.818 201.288V213.408H117.866V211.464C117.498 212.136 116.97 212.664 116.282 213.048C115.594 213.416 114.81 213.6 113.93 213.6C112.874 213.6 111.938 213.344 111.122 212.832C110.306 212.32 109.674 211.592 109.226 210.648C108.778 209.704 108.554 208.608 108.554 207.36C108.554 206.112 108.778 205.008 109.226 204.048C109.69 203.072 110.33 202.32 111.146 201.792C111.962 201.248 112.89 200.976 113.93 200.976C114.81 200.976 115.594 201.168 116.282 201.552C116.97 201.92 117.498 202.44 117.866 203.112V201.288H120.818ZM114.746 211.248C115.738 211.248 116.506 210.904 117.05 210.216C117.594 209.528 117.866 208.56 117.866 207.312C117.866 206.032 117.594 205.048 117.05 204.36C116.506 203.672 115.73 203.328 114.722 203.328C113.73 203.328 112.954 203.688 112.394 204.408C111.85 205.112 111.578 206.096 111.578 207.36C111.578 208.608 111.85 209.568 112.394 210.24C112.954 210.912 113.738 211.248 114.746 211.248ZM130.613 201C131.077 201 131.477 201.064 131.813 201.192L131.789 203.928C131.277 203.72 130.749 203.616 130.205 203.616C129.181 203.616 128.397 203.912 127.853 204.504C127.325 205.096 127.061 205.88 127.061 206.856V213.408H124.085V204.72C124.085 203.44 124.021 202.296 123.893 201.288H126.701L126.941 203.424C127.245 202.64 127.725 202.04 128.381 201.624C129.037 201.208 129.781 201 130.613 201ZM138.745 213.6C137.481 213.6 136.385 213.344 135.457 212.832C134.529 212.32 133.817 211.6 133.321 210.672C132.825 209.728 132.577 208.624 132.577 207.36C132.577 206.096 132.833 204.984 133.345 204.024C133.873 203.064 134.609 202.32 135.553 201.792C136.513 201.248 137.617 200.976 138.865 200.976C139.729 200.976 140.561 201.112 141.361 201.384C142.177 201.656 142.825 202.032 143.305 202.512L142.465 204.624C141.953 204.208 141.409 203.896 140.833 203.688C140.257 203.464 139.689 203.352 139.129 203.352C138.041 203.352 137.193 203.696 136.585 204.384C135.977 205.056 135.673 206.032 135.673 207.312C135.673 208.592 135.969 209.568 136.561 210.24C137.169 210.912 138.025 211.248 139.129 211.248C139.689 211.248 140.257 211.136 140.833 210.912C141.409 210.688 141.953 210.368 142.465 209.952L143.305 212.064C142.793 212.544 142.129 212.92 141.313 213.192C140.497 213.464 139.641 213.6 138.745 213.6ZM152.256 200.976C155.152 200.976 156.6 202.64 156.6 205.968V213.408H153.6V206.112C153.6 205.152 153.416 204.456 153.048 204.024C152.68 203.576 152.112 203.352 151.344 203.352C150.432 203.352 149.696 203.648 149.136 204.24C148.576 204.816 148.296 205.584 148.296 206.544V213.408H145.32V195.744H148.296V203.04C148.712 202.384 149.264 201.88 149.952 201.528C150.64 201.16 151.408 200.976 152.256 200.976ZM177.958 195.744V213.408H175.006V211.464C174.638 212.136 174.11 212.664 173.422 213.048C172.734 213.416 171.95 213.6 171.07 213.6C170.03 213.6 169.102 213.336 168.286 212.808C167.47 212.28 166.83 211.536 166.366 210.576C165.918 209.6 165.694 208.488 165.694 207.24C165.694 205.992 165.918 204.896 166.366 203.952C166.814 203.008 167.446 202.28 168.262 201.768C169.078 201.24 170.014 200.976 171.07 200.976C171.934 200.976 172.702 201.16 173.374 201.528C174.062 201.88 174.59 202.384 174.958 203.04V195.744H177.958ZM171.862 211.248C172.854 211.248 173.622 210.904 174.166 210.216C174.726 209.528 175.006 208.552 175.006 207.288C175.006 206.024 174.734 205.048 174.19 204.36C173.646 203.672 172.878 203.328 171.886 203.328C170.878 203.328 170.094 203.672 169.534 204.36C168.99 205.032 168.718 205.992 168.718 207.24C168.718 208.504 168.99 209.488 169.534 210.192C170.094 210.896 170.87 211.248 171.862 211.248ZM186.722 213.6C185.49 213.6 184.402 213.344 183.458 212.832C182.53 212.32 181.81 211.592 181.298 210.648C180.802 209.688 180.554 208.568 180.554 207.288C180.554 206.008 180.802 204.896 181.298 203.952C181.81 202.992 182.53 202.256 183.458 201.744C184.402 201.232 185.49 200.976 186.722 200.976C187.938 200.976 189.01 201.232 189.938 201.744C190.866 202.256 191.578 202.992 192.074 203.952C192.586 204.896 192.842 206.008 192.842 207.288C192.842 208.568 192.586 209.688 192.074 210.648C191.578 211.592 190.866 212.32 189.938 212.832C189.01 213.344 187.938 213.6 186.722 213.6ZM186.698 211.248C187.722 211.248 188.498 210.92 189.026 210.264C189.57 209.592 189.842 208.6 189.842 207.288C189.842 205.992 189.57 205.008 189.026 204.336C188.482 203.648 187.714 203.304 186.722 203.304C185.714 203.304 184.938 203.648 184.394 204.336C183.85 205.008 183.578 205.992 183.578 207.288C183.578 208.6 183.842 209.592 184.37 210.264C184.914 210.92 185.69 211.248 186.698 211.248ZM200.925 213.6C199.661 213.6 198.565 213.344 197.637 212.832C196.709 212.32 195.997 211.6 195.501 210.672C195.005 209.728 194.757 208.624 194.757 207.36C194.757 206.096 195.013 204.984 195.525 204.024C196.053 203.064 196.789 202.32 197.733 201.792C198.693 201.248 199.797 200.976 201.045 200.976C201.909 200.976 202.741 201.112 203.541 201.384C204.357 201.656 205.005 202.032 205.485 202.512L204.645 204.624C204.133 204.208 203.589 203.896 203.013 203.688C202.437 203.464 201.869 203.352 201.309 203.352C200.221 203.352 199.373 203.696 198.765 204.384C198.157 205.056 197.853 206.032 197.853 207.312C197.853 208.592 198.149 209.568 198.741 210.24C199.349 210.912 200.205 211.248 201.309 211.248C201.869 211.248 202.437 211.136 203.013 210.912C203.589 210.688 204.133 210.368 204.645 209.952L205.485 212.064C204.973 212.544 204.309 212.92 203.493 213.192C202.677 213.464 201.821 213.6 200.925 213.6ZM211.386 203.544V208.968C211.386 210.392 212.05 211.104 213.378 211.104C213.746 211.104 214.146 211.04 214.578 210.912V213.288C214.05 213.48 213.41 213.576 212.658 213.576C211.282 213.576 210.226 213.192 209.49 212.424C208.754 211.656 208.386 210.552 208.386 209.112V203.544H206.058V201.288H208.386V198.336L211.386 197.328V201.288H214.602V203.544H211.386ZM222.159 213.6C220.927 213.6 219.839 213.344 218.895 212.832C217.967 212.32 217.247 211.592 216.735 210.648C216.239 209.688 215.991 208.568 215.991 207.288C215.991 206.008 216.239 204.896 216.735 203.952C217.247 202.992 217.967 202.256 218.895 201.744C219.839 201.232 220.927 200.976 222.159 200.976C223.375 200.976 224.447 201.232 225.375 201.744C226.303 202.256 227.015 202.992 227.511 203.952C228.023 204.896 228.279 206.008 228.279 207.288C228.279 208.568 228.023 209.688 227.511 210.648C227.015 211.592 226.303 212.32 225.375 212.832C224.447 213.344 223.375 213.6 222.159 213.6ZM222.135 211.248C223.159 211.248 223.935 210.92 224.463 210.264C225.007 209.592 225.279 208.6 225.279 207.288C225.279 205.992 225.007 205.008 224.463 204.336C223.919 203.648 223.151 203.304 222.159 203.304C221.151 203.304 220.375 203.648 219.831 204.336C219.287 205.008 219.015 205.992 219.015 207.288C219.015 208.6 219.279 209.592 219.807 210.264C220.351 210.92 221.127 211.248 222.135 211.248ZM237.394 201C237.858 201 238.258 201.064 238.594 201.192L238.57 203.928C238.058 203.72 237.53 203.616 236.986 203.616C235.962 203.616 235.178 203.912 234.634 204.504C234.106 205.096 233.842 205.88 233.842 206.856V213.408H230.866V204.72C230.866 203.44 230.802 202.296 230.674 201.288H233.482L233.722 203.424C234.026 202.64 234.506 202.04 235.162 201.624C235.818 201.208 236.562 201 237.394 201Z" fill="black"/>
<path d="M85.208 253.536C84.152 253.536 83.2347 253.306 82.456 252.848C81.6773 252.378 81.08 251.706 80.664 250.832C80.248 249.946 80.04 248.901 80.04 247.696C80.04 246.501 80.248 245.466 80.664 244.592C81.08 243.717 81.6773 243.05 82.456 242.592C83.2347 242.122 84.152 241.888 85.208 241.888C85.9973 241.888 86.7173 242.016 87.368 242.272C88.0293 242.517 88.6 242.885 89.08 243.376L88.664 244.16C88.12 243.669 87.576 243.317 87.032 243.104C86.488 242.88 85.88 242.768 85.208 242.768C83.896 242.768 82.8773 243.2 82.152 244.064C81.4267 244.917 81.064 246.128 81.064 247.696C81.064 249.274 81.4213 250.496 82.136 251.36C82.8613 252.224 83.8853 252.656 85.208 252.656C85.88 252.656 86.488 252.549 87.032 252.336C87.576 252.112 88.12 251.754 88.664 251.264L89.08 252.048C88.6 252.538 88.0293 252.912 87.368 253.168C86.7173 253.413 85.9973 253.536 85.208 253.536ZM94.9935 245.2C96.9242 245.2 97.8895 246.234 97.8895 248.304V253.408H96.9135V248.368C96.9135 247.568 96.7482 246.981 96.4175 246.608C96.0975 246.234 95.5908 246.048 94.8975 246.048C94.0975 246.048 93.4522 246.293 92.9615 246.784C92.4708 247.274 92.2255 247.936 92.2255 248.768V253.408H91.2655V241.632H92.2255V246.784C92.4815 246.261 92.8495 245.866 93.3295 245.6C93.8095 245.333 94.3642 245.2 94.9935 245.2ZM103.7 253.52C102.964 253.52 102.313 253.349 101.748 253.008C101.193 252.666 100.761 252.181 100.452 251.552C100.153 250.922 100.004 250.192 100.004 249.36C100.004 248.528 100.153 247.797 100.452 247.168C100.761 246.538 101.193 246.053 101.748 245.712C102.313 245.37 102.964 245.2 103.7 245.2C104.425 245.2 105.065 245.37 105.62 245.712C106.174 246.053 106.601 246.538 106.9 247.168C107.209 247.797 107.364 248.528 107.364 249.36C107.364 250.192 107.209 250.922 106.9 251.552C106.601 252.181 106.174 252.666 105.62 253.008C105.065 253.349 104.425 253.52 103.7 253.52ZM103.684 252.656C104.537 252.656 105.193 252.373 105.652 251.808C106.121 251.232 106.356 250.416 106.356 249.36C106.356 248.314 106.121 247.504 105.652 246.928C105.182 246.341 104.532 246.048 103.7 246.048C102.857 246.048 102.201 246.341 101.732 246.928C101.262 247.504 101.028 248.314 101.028 249.36C101.028 250.426 101.257 251.242 101.716 251.808C102.174 252.373 102.83 252.656 103.684 252.656ZM112.684 253.52C111.948 253.52 111.297 253.349 110.732 253.008C110.177 252.666 109.745 252.181 109.436 251.552C109.137 250.922 108.988 250.192 108.988 249.36C108.988 248.528 109.137 247.797 109.436 247.168C109.745 246.538 110.177 246.053 110.732 245.712C111.297 245.37 111.948 245.2 112.684 245.2C113.409 245.2 114.049 245.37 114.604 245.712C115.159 246.053 115.585 246.538 115.884 247.168C116.193 247.797 116.348 248.528 116.348 249.36C116.348 250.192 116.193 250.922 115.884 251.552C115.585 252.181 115.159 252.666 114.604 253.008C114.049 253.349 113.409 253.52 112.684 253.52ZM112.668 252.656C113.521 252.656 114.177 252.373 114.636 251.808C115.105 251.232 115.34 250.416 115.34 249.36C115.34 248.314 115.105 247.504 114.636 246.928C114.167 246.341 113.516 246.048 112.684 246.048C111.841 246.048 111.185 246.341 110.716 246.928C110.247 247.504 110.012 248.314 110.012 249.36C110.012 250.426 110.241 251.242 110.7 251.808C111.159 252.373 111.815 252.656 112.668 252.656ZM121.092 253.52C119.791 253.52 118.762 253.162 118.004 252.448L118.356 251.696C118.783 252.048 119.21 252.298 119.636 252.448C120.074 252.597 120.575 252.672 121.14 252.672C121.802 252.672 122.303 252.56 122.644 252.336C122.996 252.101 123.172 251.765 123.172 251.328C123.172 250.965 123.055 250.682 122.82 250.48C122.596 250.266 122.223 250.096 121.7 249.968L120.34 249.664C119.7 249.514 119.194 249.248 118.82 248.864C118.458 248.48 118.276 248.032 118.276 247.52C118.276 246.816 118.543 246.256 119.076 245.84C119.62 245.413 120.34 245.2 121.236 245.2C121.802 245.2 122.324 245.29 122.804 245.472C123.295 245.653 123.7 245.914 124.02 246.256L123.652 247.008C122.916 246.368 122.111 246.048 121.236 246.048C120.618 246.048 120.138 246.17 119.796 246.416C119.455 246.661 119.284 247.002 119.284 247.44C119.284 247.802 119.391 248.096 119.604 248.32C119.828 248.544 120.17 248.709 120.628 248.816L122.004 249.152C123.444 249.472 124.164 250.181 124.164 251.28C124.164 251.952 123.887 252.496 123.332 252.912C122.778 253.317 122.031 253.52 121.092 253.52ZM126.903 249.28V249.328C126.903 250.405 127.148 251.232 127.639 251.808C128.14 252.373 128.865 252.656 129.815 252.656C130.775 252.656 131.655 252.325 132.455 251.664L132.839 252.432C132.487 252.762 132.039 253.029 131.495 253.232C130.951 253.424 130.391 253.52 129.815 253.52C128.599 253.52 127.639 253.152 126.935 252.416C126.231 251.68 125.879 250.666 125.879 249.376C125.879 248.554 126.033 247.829 126.343 247.2C126.663 246.56 127.105 246.069 127.671 245.728C128.236 245.376 128.887 245.2 129.623 245.2C130.679 245.2 131.5 245.541 132.087 246.224C132.684 246.906 132.983 247.856 132.983 249.072V249.28H126.903ZM129.623 246C128.887 246 128.289 246.224 127.831 246.672C127.372 247.109 127.084 247.728 126.967 248.528H132.055C131.991 247.706 131.751 247.082 131.335 246.656C130.919 246.218 130.348 246 129.623 246ZM145.956 245.392L142.18 254.24C141.807 255.114 141.337 255.754 140.772 256.16C140.217 256.576 139.519 256.869 138.676 257.04L138.484 256.272C139.252 256.09 139.828 255.856 140.212 255.568C140.607 255.28 140.937 254.826 141.204 254.208L141.54 253.424L138.116 245.392H139.156L142.052 252.432L144.964 245.392H145.956ZM150.668 253.52C149.932 253.52 149.282 253.349 148.716 253.008C148.162 252.666 147.73 252.181 147.42 251.552C147.122 250.922 146.972 250.192 146.972 249.36C146.972 248.528 147.122 247.797 147.42 247.168C147.73 246.538 148.162 246.053 148.716 245.712C149.282 245.37 149.932 245.2 150.668 245.2C151.394 245.2 152.034 245.37 152.588 245.712C153.143 246.053 153.57 246.538 153.868 247.168C154.178 247.797 154.332 248.528 154.332 249.36C154.332 250.192 154.178 250.922 153.868 251.552C153.57 252.181 153.143 252.666 152.588 253.008C152.034 253.349 151.394 253.52 150.668 253.52ZM150.652 252.656C151.506 252.656 152.162 252.373 152.62 251.808C153.09 251.232 153.324 250.416 153.324 249.36C153.324 248.314 153.09 247.504 152.62 246.928C152.151 246.341 151.5 246.048 150.668 246.048C149.826 246.048 149.17 246.341 148.7 246.928C148.231 247.504 147.996 248.314 147.996 249.36C147.996 250.426 148.226 251.242 148.684 251.808C149.143 252.373 149.799 252.656 150.652 252.656ZM162.917 245.392V253.408H161.973V251.952C161.717 252.464 161.354 252.853 160.885 253.12C160.415 253.386 159.877 253.52 159.269 253.52C158.33 253.52 157.621 253.258 157.141 252.736C156.661 252.213 156.421 251.44 156.421 250.416V245.392H157.381V250.352C157.381 251.141 157.541 251.722 157.861 252.096C158.181 252.469 158.677 252.656 159.349 252.656C160.138 252.656 160.767 252.41 161.237 251.92C161.706 251.418 161.941 250.757 161.941 249.936V245.392H162.917ZM169.034 245.2C169.301 245.2 169.535 245.221 169.738 245.264L169.69 246.144C169.487 246.101 169.242 246.08 168.954 246.08C168.143 246.08 167.535 246.341 167.13 246.864C166.735 247.376 166.538 247.989 166.538 248.704V253.408H165.578V247.616C165.578 246.784 165.535 246.042 165.45 245.392H166.378L166.506 246.88C166.709 246.336 167.034 245.92 167.482 245.632C167.941 245.344 168.458 245.2 169.034 245.2ZM182.034 241.632V253.408H181.058V251.872C180.824 252.405 180.466 252.816 179.986 253.104C179.517 253.381 178.952 253.52 178.29 253.52C177.586 253.52 176.962 253.349 176.418 253.008C175.885 252.656 175.469 252.165 175.17 251.536C174.872 250.896 174.722 250.16 174.722 249.328C174.722 248.496 174.866 247.77 175.154 247.152C175.453 246.522 175.869 246.042 176.402 245.712C176.946 245.37 177.576 245.2 178.29 245.2C178.941 245.2 179.501 245.338 179.97 245.616C180.45 245.893 180.813 246.298 181.058 246.832V241.632H182.034ZM178.418 252.656C179.261 252.656 179.912 252.368 180.37 251.792C180.829 251.216 181.058 250.405 181.058 249.36C181.058 248.314 180.829 247.504 180.37 246.928C179.912 246.341 179.266 246.048 178.434 246.048C177.581 246.048 176.92 246.336 176.45 246.912C175.981 247.488 175.746 248.293 175.746 249.328C175.746 250.373 175.981 251.189 176.45 251.776C176.92 252.362 177.576 252.656 178.418 252.656ZM187.871 253.52C187.135 253.52 186.485 253.349 185.919 253.008C185.365 252.666 184.933 252.181 184.623 251.552C184.325 250.922 184.175 250.192 184.175 249.36C184.175 248.528 184.325 247.797 184.623 247.168C184.933 246.538 185.365 246.053 185.919 245.712C186.485 245.37 187.135 245.2 187.871 245.2C188.597 245.2 189.237 245.37 189.791 245.712C190.346 246.053 190.773 246.538 191.071 247.168C191.381 247.797 191.535 248.528 191.535 249.36C191.535 250.192 191.381 250.922 191.071 251.552C190.773 252.181 190.346 252.666 189.791 253.008C189.237 253.349 188.597 253.52 187.871 253.52ZM187.855 252.656C188.709 252.656 189.365 252.373 189.823 251.808C190.293 251.232 190.527 250.416 190.527 249.36C190.527 248.314 190.293 247.504 189.823 246.928C189.354 246.341 188.703 246.048 187.871 246.048C187.029 246.048 186.373 246.341 185.903 246.928C185.434 247.504 185.199 248.314 185.199 249.36C185.199 250.426 185.429 251.242 185.887 251.808C186.346 252.373 187.002 252.656 187.855 252.656ZM196.92 253.52C196.162 253.52 195.501 253.349 194.936 253.008C194.37 252.666 193.933 252.186 193.624 251.568C193.314 250.938 193.16 250.213 193.16 249.392C193.16 248.56 193.314 247.829 193.624 247.2C193.933 246.56 194.376 246.069 194.952 245.728C195.528 245.376 196.194 245.2 196.952 245.2C197.496 245.2 198.013 245.296 198.504 245.488C199.005 245.669 199.416 245.925 199.736 246.256L199.352 247.024C198.936 246.682 198.536 246.437 198.152 246.288C197.778 246.128 197.389 246.048 196.984 246.048C196.12 246.048 195.437 246.346 194.936 246.944C194.434 247.53 194.184 248.346 194.184 249.392C194.184 250.416 194.429 251.216 194.92 251.792C195.421 252.368 196.109 252.656 196.984 252.656C197.389 252.656 197.778 252.581 198.152 252.432C198.536 252.272 198.936 252.026 199.352 251.696L199.736 252.448C199.394 252.778 198.968 253.04 198.456 253.232C197.954 253.424 197.442 253.52 196.92 253.52ZM202.876 246.176V250.944C202.876 251.584 202.998 252.026 203.244 252.272C203.489 252.517 203.852 252.64 204.332 252.64C204.63 252.64 204.918 252.592 205.196 252.496V253.376C204.854 253.461 204.508 253.504 204.156 253.504C203.452 253.504 202.897 253.306 202.492 252.912C202.097 252.517 201.9 251.925 201.9 251.136V246.176H200.316V245.392H201.9V243.264L202.876 242.896V245.392H205.244V246.176H202.876ZM210.09 253.52C209.354 253.52 208.703 253.349 208.138 253.008C207.583 252.666 207.151 252.181 206.842 251.552C206.543 250.922 206.394 250.192 206.394 249.36C206.394 248.528 206.543 247.797 206.842 247.168C207.151 246.538 207.583 246.053 208.138 245.712C208.703 245.37 209.354 245.2 210.09 245.2C210.815 245.2 211.455 245.37 212.01 245.712C212.565 246.053 212.991 246.538 213.29 247.168C213.599 247.797 213.754 248.528 213.754 249.36C213.754 250.192 213.599 250.922 213.29 251.552C212.991 252.181 212.565 252.666 212.01 253.008C211.455 253.349 210.815 253.52 210.09 253.52ZM210.074 252.656C210.927 252.656 211.583 252.373 212.042 251.808C212.511 251.232 212.746 250.416 212.746 249.36C212.746 248.314 212.511 247.504 212.042 246.928C211.573 246.341 210.922 246.048 210.09 246.048C209.247 246.048 208.591 246.341 208.122 246.928C207.653 247.504 207.418 248.314 207.418 249.36C207.418 250.426 207.647 251.242 208.106 251.808C208.565 252.373 209.221 252.656 210.074 252.656ZM219.347 245.2C219.613 245.2 219.848 245.221 220.051 245.264L220.003 246.144C219.8 246.101 219.555 246.08 219.266 246.08C218.456 246.08 217.848 246.341 217.443 246.864C217.048 247.376 216.851 247.989 216.851 248.704V253.408H215.891V247.616C215.891 246.784 215.848 246.042 215.763 245.392H216.691L216.819 246.88C217.021 246.336 217.347 245.92 217.795 245.632C218.253 245.344 218.771 245.2 219.347 245.2ZM228.315 242.448C227.856 242.448 227.504 242.57 227.259 242.816C227.013 243.061 226.891 243.498 226.891 244.128V245.392H228.955V246.176H226.891V253.408H225.915V246.176H224.347V245.392H225.915V243.952C225.915 243.152 226.112 242.554 226.507 242.16C226.901 241.765 227.445 241.568 228.139 241.568C228.459 241.568 228.789 241.61 229.131 241.696V242.576C228.843 242.49 228.571 242.448 228.315 242.448ZM234.19 245.2C234.457 245.2 234.692 245.221 234.894 245.264L234.846 246.144C234.644 246.101 234.398 246.08 234.11 246.08C233.3 246.08 232.692 246.341 232.286 246.864C231.892 247.376 231.694 247.989 231.694 248.704V253.408H230.734V247.616C230.734 246.784 230.692 246.042 230.606 245.392H231.534L231.662 246.88C231.865 246.336 232.19 245.92 232.638 245.632C233.097 245.344 233.614 245.2 234.19 245.2ZM239.34 253.52C238.604 253.52 237.953 253.349 237.388 253.008C236.833 252.666 236.401 252.181 236.092 251.552C235.793 250.922 235.644 250.192 235.644 249.36C235.644 248.528 235.793 247.797 236.092 247.168C236.401 246.538 236.833 246.053 237.388 245.712C237.953 245.37 238.604 245.2 239.34 245.2C240.065 245.2 240.705 245.37 241.26 245.712C241.815 246.053 242.241 246.538 242.54 247.168C242.849 247.797 243.004 248.528 243.004 249.36C243.004 250.192 242.849 250.922 242.54 251.552C242.241 252.181 241.815 252.666 241.26 253.008C240.705 253.349 240.065 253.52 239.34 253.52ZM239.324 252.656C240.177 252.656 240.833 252.373 241.292 251.808C241.761 251.232 241.996 250.416 241.996 249.36C241.996 248.314 241.761 247.504 241.292 246.928C240.823 246.341 240.172 246.048 239.34 246.048C238.497 246.048 237.841 246.341 237.372 246.928C236.903 247.504 236.668 248.314 236.668 249.36C236.668 250.426 236.897 251.242 237.356 251.808C237.815 252.373 238.471 252.656 239.324 252.656ZM253.781 245.2C255.551 245.2 256.437 246.234 256.437 248.304V253.408H255.461V248.368C255.461 247.557 255.317 246.97 255.029 246.608C254.741 246.234 254.282 246.048 253.653 246.048C252.917 246.048 252.335 246.293 251.909 246.784C251.493 247.274 251.285 247.941 251.285 248.784V253.408H250.309V248.368C250.309 247.557 250.159 246.97 249.861 246.608C249.573 246.234 249.114 246.048 248.485 246.048C247.759 246.048 247.178 246.293 246.741 246.784C246.314 247.274 246.101 247.941 246.101 248.784V253.408H245.141V247.616C245.141 246.784 245.098 246.042 245.013 245.392H245.941L246.069 246.832C246.293 246.298 246.623 245.893 247.061 245.616C247.509 245.338 248.026 245.2 248.613 245.2C249.903 245.2 250.73 245.722 251.093 246.768C251.317 246.277 251.663 245.893 252.133 245.616C252.613 245.338 253.162 245.2 253.781 245.2ZM264.485 246.176V250.944C264.485 251.584 264.608 252.026 264.853 252.272C265.098 252.517 265.461 252.64 265.941 252.64C266.24 252.64 266.528 252.592 266.805 252.496V253.376C266.464 253.461 266.117 253.504 265.765 253.504C265.061 253.504 264.506 253.306 264.101 252.912C263.706 252.517 263.509 251.925 263.509 251.136V246.176H261.925V245.392H263.509V243.264L264.485 242.896V245.392H266.853V246.176H264.485ZM272.244 245.2C274.174 245.2 275.14 246.234 275.14 248.304V253.408H274.164V248.368C274.164 247.568 273.998 246.981 273.668 246.608C273.348 246.234 272.841 246.048 272.148 246.048C271.348 246.048 270.702 246.293 270.212 246.784C269.721 247.274 269.476 247.936 269.476 248.768V253.408H268.516V241.632H269.476V246.784C269.732 246.261 270.1 245.866 270.58 245.6C271.06 245.333 271.614 245.2 272.244 245.2ZM280.95 253.52C280.214 253.52 279.563 253.349 278.998 253.008C278.443 252.666 278.011 252.181 277.702 251.552C277.403 250.922 277.254 250.192 277.254 249.36C277.254 248.528 277.403 247.797 277.702 247.168C278.011 246.538 278.443 246.053 278.998 245.712C279.563 245.37 280.214 245.2 280.95 245.2C281.675 245.2 282.315 245.37 282.87 245.712C283.424 246.053 283.851 246.538 284.15 247.168C284.459 247.797 284.614 248.528 284.614 249.36C284.614 250.192 284.459 250.922 284.15 251.552C283.851 252.181 283.424 252.666 282.87 253.008C282.315 253.349 281.675 253.52 280.95 253.52ZM280.934 252.656C281.787 252.656 282.443 252.373 282.902 251.808C283.371 251.232 283.606 250.416 283.606 249.36C283.606 248.314 283.371 247.504 282.902 246.928C282.432 246.341 281.782 246.048 280.95 246.048C280.107 246.048 279.451 246.341 278.982 246.928C278.512 247.504 278.278 248.314 278.278 249.36C278.278 250.426 278.507 251.242 278.966 251.808C279.424 252.373 280.08 252.656 280.934 252.656ZM293.198 245.392V253.408H292.254V251.952C291.998 252.464 291.635 252.853 291.166 253.12C290.697 253.386 290.158 253.52 289.55 253.52C288.611 253.52 287.902 253.258 287.422 252.736C286.942 252.213 286.702 251.44 286.702 250.416V245.392H287.662V250.352C287.662 251.141 287.822 251.722 288.142 252.096C288.462 252.469 288.958 252.656 289.63 252.656C290.419 252.656 291.049 252.41 291.518 251.92C291.987 251.418 292.222 250.757 292.222 249.936V245.392H293.198ZM298.467 253.52C297.166 253.52 296.137 253.162 295.379 252.448L295.731 251.696C296.158 252.048 296.585 252.298 297.011 252.448C297.449 252.597 297.95 252.672 298.515 252.672C299.177 252.672 299.678 252.56 300.019 252.336C300.371 252.101 300.547 251.765 300.547 251.328C300.547 250.965 300.43 250.682 300.195 250.48C299.971 250.266 299.598 250.096 299.075 249.968L297.715 249.664C297.075 249.514 296.569 249.248 296.195 248.864C295.833 248.48 295.651 248.032 295.651 247.52C295.651 246.816 295.918 246.256 296.451 245.84C296.995 245.413 297.715 245.2 298.611 245.2C299.177 245.2 299.699 245.29 300.179 245.472C300.67 245.653 301.075 245.914 301.395 246.256L301.027 247.008C300.291 246.368 299.486 246.048 298.611 246.048C297.993 246.048 297.513 246.17 297.171 246.416C296.83 246.661 296.659 247.002 296.659 247.44C296.659 247.802 296.766 248.096 296.979 248.32C297.203 248.544 297.545 248.709 298.003 248.816L299.379 249.152C300.819 249.472 301.539 250.181 301.539 251.28C301.539 251.952 301.262 252.496 300.707 252.912C300.153 253.317 299.406 253.52 298.467 253.52ZM310.566 245.392V253.408H309.59V251.872C309.355 252.405 308.998 252.816 308.518 253.104C308.048 253.381 307.483 253.52 306.822 253.52C306.107 253.52 305.478 253.354 304.934 253.024C304.4 252.682 303.984 252.202 303.686 251.584C303.398 250.954 303.254 250.224 303.254 249.392C303.254 248.56 303.403 247.829 303.702 247.2C304 246.56 304.416 246.069 304.95 245.728C305.494 245.376 306.118 245.2 306.822 245.2C307.472 245.2 308.032 245.338 308.502 245.616C308.982 245.893 309.344 246.298 309.59 246.832V245.392H310.566ZM306.966 252.656C307.798 252.656 308.443 252.368 308.902 251.792C309.36 251.216 309.59 250.405 309.59 249.36C309.59 248.304 309.36 247.488 308.902 246.912C308.443 246.336 307.792 246.048 306.95 246.048C306.107 246.048 305.451 246.346 304.982 246.944C304.512 247.53 304.278 248.346 304.278 249.392C304.278 250.426 304.512 251.232 304.982 251.808C305.451 252.373 306.112 252.656 306.966 252.656ZM316.947 245.2C318.877 245.2 319.843 246.234 319.843 248.304V253.408H318.867V248.368C318.867 247.568 318.701 246.981 318.371 246.608C318.051 246.234 317.544 246.048 316.851 246.048C316.051 246.048 315.405 246.293 314.915 246.784C314.424 247.274 314.179 247.936 314.179 248.768V253.408H313.219V247.616C313.219 246.784 313.176 246.042 313.091 245.392H314.019L314.147 246.864C314.392 246.32 314.76 245.909 315.251 245.632C315.741 245.344 316.307 245.2 316.947 245.2ZM329.269 241.632V253.408H328.293V251.872C328.058 252.405 327.701 252.816 327.221 253.104C326.751 253.381 326.186 253.52 325.525 253.52C324.821 253.52 324.197 253.349 323.653 253.008C323.119 252.656 322.703 252.165 322.405 251.536C322.106 250.896 321.957 250.16 321.957 249.328C321.957 248.496 322.101 247.77 322.389 247.152C322.687 246.522 323.103 246.042 323.637 245.712C324.181 245.37 324.81 245.2 325.525 245.2C326.175 245.2 326.735 245.338 327.205 245.616C327.685 245.893 328.047 246.298 328.293 246.832V241.632H329.269ZM325.653 252.656C326.495 252.656 327.146 252.368 327.605 251.792C328.063 251.216 328.293 250.405 328.293 249.36C328.293 248.314 328.063 247.504 327.605 246.928C327.146 246.341 326.501 246.048 325.669 246.048C324.815 246.048 324.154 246.336 323.685 246.912C323.215 247.488 322.981 248.293 322.981 249.328C322.981 250.373 323.215 251.189 323.685 251.776C324.154 252.362 324.81 252.656 325.653 252.656ZM334.53 253.52C333.228 253.52 332.199 253.162 331.442 252.448L331.794 251.696C332.22 252.048 332.647 252.298 333.074 252.448C333.511 252.597 334.012 252.672 334.578 252.672C335.239 252.672 335.74 252.56 336.082 252.336C336.434 252.101 336.61 251.765 336.61 251.328C336.61 250.965 336.492 250.682 336.258 250.48C336.034 250.266 335.66 250.096 335.138 249.968L333.778 249.664C333.138 249.514 332.631 249.248 332.258 248.864C331.895 248.48 331.714 248.032 331.714 247.52C331.714 246.816 331.98 246.256 332.514 245.84C333.058 245.413 333.778 245.2 334.674 245.2C335.239 245.2 335.762 245.29 336.242 245.472C336.732 245.653 337.138 245.914 337.458 246.256L337.09 247.008C336.354 246.368 335.548 246.048 334.674 246.048C334.055 246.048 333.575 246.17 333.234 246.416C332.892 246.661 332.722 247.002 332.722 247.44C332.722 247.802 332.828 248.096 333.042 248.32C333.266 248.544 333.607 248.709 334.066 248.816L335.442 249.152C336.882 249.472 337.602 250.181 337.602 251.28C337.602 251.952 337.324 252.496 336.77 252.912C336.215 253.317 335.468 253.52 334.53 253.52ZM83.512 281.52C82.776 281.52 82.1253 281.349 81.56 281.008C81.0053 280.666 80.5733 280.181 80.264 279.552C79.9653 278.922 79.816 278.192 79.816 277.36C79.816 276.528 79.9653 275.797 80.264 275.168C80.5733 274.538 81.0053 274.053 81.56 273.712C82.1253 273.37 82.776 273.2 83.512 273.2C84.2373 273.2 84.8773 273.37 85.432 273.712C85.9867 274.053 86.4133 274.538 86.712 275.168C87.0213 275.797 87.176 276.528 87.176 277.36C87.176 278.192 87.0213 278.922 86.712 279.552C86.4133 280.181 85.9867 280.666 85.432 281.008C84.8773 281.349 84.2373 281.52 83.512 281.52ZM83.496 280.656C84.3493 280.656 85.0053 280.373 85.464 279.808C85.9333 279.232 86.168 278.416 86.168 277.36C86.168 276.314 85.9333 275.504 85.464 274.928C84.9947 274.341 84.344 274.048 83.512 274.048C82.6693 274.048 82.0133 274.341 81.544 274.928C81.0747 275.504 80.84 276.314 80.84 277.36C80.84 278.426 81.0693 279.242 81.528 279.808C81.9867 280.373 82.6427 280.656 83.496 280.656ZM92.0804 270.448C91.6217 270.448 91.2697 270.57 91.0244 270.816C90.779 271.061 90.6564 271.498 90.6564 272.128V273.392H92.7204V274.176H90.6564V281.408H89.6804V274.176H88.1124V273.392H89.6804V271.952C89.6804 271.152 89.8777 270.554 90.2724 270.16C90.667 269.765 91.211 269.568 91.9044 269.568C92.2244 269.568 92.555 269.61 92.8964 269.696V270.576C92.6084 270.49 92.3364 270.448 92.0804 270.448ZM101.186 281.52C99.8847 281.52 98.8553 281.162 98.098 280.448L98.45 279.696C98.8767 280.048 99.3033 280.298 99.73 280.448C100.167 280.597 100.669 280.672 101.234 280.672C101.895 280.672 102.397 280.56 102.738 280.336C103.09 280.101 103.266 279.765 103.266 279.328C103.266 278.965 103.149 278.682 102.914 278.48C102.69 278.266 102.317 278.096 101.794 277.968L100.434 277.664C99.794 277.514 99.2873 277.248 98.914 276.864C98.5513 276.48 98.37 276.032 98.37 275.52C98.37 274.816 98.6367 274.256 99.17 273.84C99.714 273.413 100.434 273.2 101.33 273.2C101.895 273.2 102.418 273.29 102.898 273.472C103.389 273.653 103.794 273.914 104.114 274.256L103.746 275.008C103.01 274.368 102.205 274.048 101.33 274.048C100.711 274.048 100.231 274.17 99.89 274.416C99.5487 274.661 99.378 275.002 99.378 275.44C99.378 275.802 99.4847 276.096 99.698 276.32C99.922 276.544 100.263 276.709 100.722 276.816L102.098 277.152C103.538 277.472 104.258 278.181 104.258 279.28C104.258 279.952 103.981 280.496 103.426 280.912C102.871 281.317 102.125 281.52 101.186 281.52ZM110.228 273.2C110.932 273.2 111.551 273.376 112.084 273.728C112.628 274.069 113.05 274.56 113.348 275.2C113.647 275.829 113.796 276.56 113.796 277.392C113.796 278.224 113.647 278.949 113.348 279.568C113.06 280.186 112.644 280.666 112.1 281.008C111.556 281.349 110.932 281.52 110.228 281.52C109.556 281.52 108.98 281.376 108.5 281.088C108.031 280.789 107.679 280.362 107.444 279.808V284.864H106.484V275.616C106.484 274.784 106.442 274.042 106.356 273.392H107.284L107.412 274.96C107.647 274.394 108.004 273.962 108.484 273.664C108.975 273.354 109.556 273.2 110.228 273.2ZM110.1 280.656C110.943 280.656 111.599 280.373 112.068 279.808C112.538 279.232 112.772 278.426 112.772 277.392C112.772 276.346 112.538 275.53 112.068 274.944C111.599 274.346 110.948 274.048 110.116 274.048C109.263 274.048 108.607 274.336 108.148 274.912C107.69 275.488 107.46 276.304 107.46 277.36C107.46 278.405 107.69 279.216 108.148 279.792C108.607 280.368 109.258 280.656 110.1 280.656ZM116.449 277.28V277.328C116.449 278.405 116.695 279.232 117.185 279.808C117.687 280.373 118.412 280.656 119.361 280.656C120.321 280.656 121.201 280.325 122.001 279.664L122.385 280.432C122.033 280.762 121.585 281.029 121.041 281.232C120.497 281.424 119.937 281.52 119.361 281.52C118.145 281.52 117.185 281.152 116.481 280.416C115.777 279.68 115.425 278.666 115.425 277.376C115.425 276.554 115.58 275.829 115.889 275.2C116.209 274.56 116.652 274.069 117.217 273.728C117.783 273.376 118.433 273.2 119.169 273.2C120.225 273.2 121.047 273.541 121.633 274.224C122.231 274.906 122.529 275.856 122.529 277.072V277.28H116.449ZM119.169 274C118.433 274 117.836 274.224 117.377 274.672C116.919 275.109 116.631 275.728 116.513 276.528H121.601C121.537 275.706 121.297 275.082 120.881 274.656C120.465 274.218 119.895 274 119.169 274ZM127.873 281.52C127.116 281.52 126.454 281.349 125.889 281.008C125.324 280.666 124.886 280.186 124.577 279.568C124.268 278.938 124.113 278.213 124.113 277.392C124.113 276.56 124.268 275.829 124.577 275.2C124.886 274.56 125.329 274.069 125.905 273.728C126.481 273.376 127.148 273.2 127.905 273.2C128.449 273.2 128.966 273.296 129.457 273.488C129.958 273.669 130.369 273.925 130.689 274.256L130.305 275.024C129.889 274.682 129.489 274.437 129.105 274.288C128.732 274.128 128.342 274.048 127.937 274.048C127.073 274.048 126.39 274.346 125.889 274.944C125.388 275.53 125.137 276.346 125.137 277.392C125.137 278.416 125.382 279.216 125.873 279.792C126.374 280.368 127.062 280.656 127.937 280.656C128.342 280.656 128.732 280.581 129.105 280.432C129.489 280.272 129.889 280.026 130.305 279.696L130.689 280.448C130.348 280.778 129.921 281.04 129.409 281.232C128.908 281.424 128.396 281.52 127.873 281.52ZM132.469 273.392H133.429V281.408H132.469V273.392ZM133.621 270.08V271.328H132.325V270.08H133.621ZM142.909 273.392V281.408H141.933V279.872C141.699 280.405 141.341 280.816 140.861 281.104C140.392 281.381 139.827 281.52 139.165 281.52C138.451 281.52 137.821 281.354 137.277 281.024C136.744 280.682 136.328 280.202 136.029 279.584C135.741 278.954 135.597 278.224 135.597 277.392C135.597 276.56 135.747 275.829 136.045 275.2C136.344 274.56 136.76 274.069 137.293 273.728C137.837 273.376 138.461 273.2 139.165 273.2C139.816 273.2 140.376 273.338 140.845 273.616C141.325 273.893 141.688 274.298 141.933 274.832V273.392H142.909ZM139.309 280.656C140.141 280.656 140.787 280.368 141.245 279.792C141.704 279.216 141.933 278.405 141.933 277.36C141.933 276.304 141.704 275.488 141.245 274.912C140.787 274.336 140.136 274.048 139.293 274.048C138.451 274.048 137.795 274.346 137.325 274.944C136.856 275.53 136.621 276.346 136.621 277.392C136.621 278.426 136.856 279.232 137.325 279.808C137.795 280.373 138.456 280.656 139.309 280.656ZM145.562 269.632H146.522V281.408H145.562V269.632ZM149.203 273.392H150.163V281.408H149.203V273.392ZM150.355 270.08V271.328H149.059V270.08H150.355ZM155.452 281.52C154.15 281.52 153.121 281.162 152.364 280.448L152.716 279.696C153.142 280.048 153.569 280.298 153.996 280.448C154.433 280.597 154.934 280.672 155.5 280.672C156.161 280.672 156.662 280.56 157.004 280.336C157.356 280.101 157.532 279.765 157.532 279.328C157.532 278.965 157.414 278.682 157.18 278.48C156.956 278.266 156.582 278.096 156.06 277.968L154.7 277.664C154.06 277.514 153.553 277.248 153.18 276.864C152.817 276.48 152.636 276.032 152.636 275.52C152.636 274.816 152.902 274.256 153.436 273.84C153.98 273.413 154.7 273.2 155.596 273.2C156.161 273.2 156.684 273.29 157.164 273.472C157.654 273.653 158.06 273.914 158.38 274.256L158.012 275.008C157.276 274.368 156.47 274.048 155.596 274.048C154.977 274.048 154.497 274.17 154.156 274.416C153.814 274.661 153.644 275.002 153.644 275.44C153.644 275.802 153.75 276.096 153.964 276.32C154.188 276.544 154.529 276.709 154.988 276.816L156.364 277.152C157.804 277.472 158.524 278.181 158.524 279.28C158.524 279.952 158.246 280.496 157.692 280.912C157.137 281.317 156.39 281.52 155.452 281.52ZM162.032 274.176V278.944C162.032 279.584 162.154 280.026 162.4 280.272C162.645 280.517 163.008 280.64 163.488 280.64C163.786 280.64 164.074 280.592 164.352 280.496V281.376C164.01 281.461 163.664 281.504 163.312 281.504C162.608 281.504 162.053 281.306 161.648 280.912C161.253 280.517 161.056 279.925 161.056 279.136V274.176H159.472V273.392H161.056V271.264L162.032 270.896V273.392H164.4V274.176H162.032ZM167.37 280.016V281.04C167.37 281.445 167.306 281.818 167.178 282.16C167.05 282.501 166.837 282.821 166.538 283.12L166.026 282.72C166.389 282.314 166.592 281.877 166.634 281.408H166.01V280.016H167.37ZM180.723 273.392V281.44C180.723 282.602 180.435 283.482 179.859 284.08C179.283 284.677 178.435 284.976 177.315 284.976C176.121 284.976 175.081 284.688 174.195 284.112L174.387 283.264C174.91 283.573 175.39 283.792 175.827 283.92C176.265 284.048 176.766 284.112 177.331 284.112C178.131 284.112 178.734 283.893 179.139 283.456C179.555 283.018 179.763 282.378 179.763 281.536V279.472C179.518 280.016 179.155 280.437 178.675 280.736C178.195 281.024 177.619 281.168 176.947 281.168C176.243 281.168 175.619 281.002 175.075 280.672C174.531 280.33 174.105 279.861 173.795 279.264C173.497 278.656 173.347 277.962 173.347 277.184C173.347 276.394 173.497 275.701 173.795 275.104C174.105 274.496 174.531 274.026 175.075 273.696C175.619 273.365 176.243 273.2 176.947 273.2C177.619 273.2 178.19 273.338 178.659 273.616C179.139 273.893 179.502 274.298 179.747 274.832V273.392H180.723ZM177.075 280.288C177.907 280.288 178.558 280.01 179.027 279.456C179.507 278.901 179.747 278.144 179.747 277.184C179.747 276.213 179.507 275.45 179.027 274.896C178.558 274.33 177.907 274.048 177.075 274.048C176.233 274.048 175.571 274.33 175.091 274.896C174.611 275.45 174.371 276.213 174.371 277.184C174.371 278.154 174.611 278.917 175.091 279.472C175.571 280.016 176.233 280.288 177.075 280.288ZM183.887 277.28V277.328C183.887 278.405 184.132 279.232 184.623 279.808C185.124 280.373 185.85 280.656 186.799 280.656C187.759 280.656 188.639 280.325 189.439 279.664L189.823 280.432C189.471 280.762 189.023 281.029 188.479 281.232C187.935 281.424 187.375 281.52 186.799 281.52C185.583 281.52 184.623 281.152 183.919 280.416C183.215 279.68 182.863 278.666 182.863 277.376C182.863 276.554 183.018 275.829 183.327 275.2C183.647 274.56 184.09 274.069 184.655 273.728C185.22 273.376 185.871 273.2 186.607 273.2C187.663 273.2 188.484 273.541 189.071 274.224C189.668 274.906 189.967 275.856 189.967 277.072V277.28H183.887ZM186.607 274C185.871 274 185.274 274.224 184.815 274.672C184.356 275.109 184.068 275.728 183.951 276.528H189.039C188.975 275.706 188.735 275.082 188.319 274.656C187.903 274.218 187.332 274 186.607 274ZM195.79 273.2C197.721 273.2 198.686 274.234 198.686 276.304V281.408H197.71V276.368C197.71 275.568 197.545 274.981 197.214 274.608C196.894 274.234 196.388 274.048 195.694 274.048C194.894 274.048 194.249 274.293 193.758 274.784C193.268 275.274 193.022 275.936 193.022 276.768V281.408H192.062V275.616C192.062 274.784 192.02 274.042 191.934 273.392H192.862L192.99 274.864C193.236 274.32 193.604 273.909 194.094 273.632C194.585 273.344 195.15 273.2 195.79 273.2ZM201.824 277.28V277.328C201.824 278.405 202.07 279.232 202.56 279.808C203.062 280.373 203.787 280.656 204.736 280.656C205.696 280.656 206.576 280.325 207.376 279.664L207.76 280.432C207.408 280.762 206.96 281.029 206.416 281.232C205.872 281.424 205.312 281.52 204.736 281.52C203.52 281.52 202.56 281.152 201.856 280.416C201.152 279.68 200.8 278.666 200.8 277.376C200.8 276.554 200.955 275.829 201.264 275.2C201.584 274.56 202.027 274.069 202.592 273.728C203.158 273.376 203.808 273.2 204.544 273.2C205.6 273.2 206.422 273.541 207.008 274.224C207.606 274.906 207.904 275.856 207.904 277.072V277.28H201.824ZM204.544 274C203.808 274 203.211 274.224 202.752 274.672C202.294 275.109 202.006 275.728 201.888 276.528H206.976C206.912 275.706 206.672 275.082 206.256 274.656C205.84 274.218 205.27 274 204.544 274ZM213.456 273.2C213.723 273.2 213.957 273.221 214.16 273.264L214.112 274.144C213.909 274.101 213.664 274.08 213.376 274.08C212.565 274.08 211.957 274.341 211.552 274.864C211.157 275.376 210.96 275.989 210.96 276.704V281.408H210V275.616C210 274.784 209.957 274.042 209.872 273.392H210.8L210.928 274.88C211.131 274.336 211.456 273.92 211.904 273.632C212.363 273.344 212.88 273.2 213.456 273.2ZM222.222 273.392V281.408H221.246V279.872C221.011 280.405 220.654 280.816 220.174 281.104C219.704 281.381 219.139 281.52 218.478 281.52C217.763 281.52 217.134 281.354 216.59 281.024C216.056 280.682 215.64 280.202 215.342 279.584C215.054 278.954 214.91 278.224 214.91 277.392C214.91 276.56 215.059 275.829 215.358 275.2C215.656 274.56 216.072 274.069 216.606 273.728C217.15 273.376 217.774 273.2 218.478 273.2C219.128 273.2 219.688 273.338 220.158 273.616C220.638 273.893 221 274.298 221.246 274.832V273.392H222.222ZM218.622 280.656C219.454 280.656 220.099 280.368 220.558 279.792C221.016 279.216 221.246 278.405 221.246 277.36C221.246 276.304 221.016 275.488 220.558 274.912C220.099 274.336 219.448 274.048 218.606 274.048C217.763 274.048 217.107 274.346 216.638 274.944C216.168 275.53 215.934 276.346 215.934 277.392C215.934 278.426 216.168 279.232 216.638 279.808C217.107 280.373 217.768 280.656 218.622 280.656ZM224.875 269.632H225.835V281.408H224.875V269.632ZM229.652 280.016V281.04C229.652 281.445 229.588 281.818 229.46 282.16C229.332 282.501 229.118 282.821 228.82 283.12L228.308 282.72C228.67 282.314 228.873 281.877 228.916 281.408H228.292V280.016H229.652ZM242.941 273.392V281.408H241.965V279.872C241.73 280.405 241.373 280.816 240.893 281.104C240.423 281.381 239.858 281.52 239.197 281.52C238.482 281.52 237.853 281.354 237.309 281.024C236.775 280.682 236.359 280.202 236.061 279.584C235.773 278.954 235.629 278.224 235.629 277.392C235.629 276.56 235.778 275.829 236.077 275.2C236.375 274.56 236.791 274.069 237.325 273.728C237.869 273.376 238.493 273.2 239.197 273.2C239.847 273.2 240.407 273.338 240.877 273.616C241.357 273.893 241.719 274.298 241.965 274.832V273.392H242.941ZM239.341 280.656C240.173 280.656 240.818 280.368 241.277 279.792C241.735 279.216 241.965 278.405 241.965 277.36C241.965 276.304 241.735 275.488 241.277 274.912C240.818 274.336 240.167 274.048 239.325 274.048C238.482 274.048 237.826 274.346 237.357 274.944C236.887 275.53 236.653 276.346 236.653 277.392C236.653 278.426 236.887 279.232 237.357 279.808C237.826 280.373 238.487 280.656 239.341 280.656ZM249.322 273.2C251.252 273.2 252.218 274.234 252.218 276.304V281.408H251.242V276.368C251.242 275.568 251.076 274.981 250.746 274.608C250.426 274.234 249.919 274.048 249.226 274.048C248.426 274.048 247.78 274.293 247.29 274.784C246.799 275.274 246.554 275.936 246.554 276.768V281.408H245.594V275.616C245.594 274.784 245.551 274.042 245.466 273.392H246.394L246.522 274.864C246.767 274.32 247.135 273.909 247.626 273.632C248.116 273.344 248.682 273.2 249.322 273.2ZM261.644 269.632V281.408H260.668V279.872C260.433 280.405 260.076 280.816 259.596 281.104C259.126 281.381 258.561 281.52 257.9 281.52C257.196 281.52 256.572 281.349 256.028 281.008C255.494 280.656 255.078 280.165 254.78 279.536C254.481 278.896 254.332 278.16 254.332 277.328C254.332 276.496 254.476 275.77 254.764 275.152C255.062 274.522 255.478 274.042 256.012 273.712C256.556 273.37 257.185 273.2 257.9 273.2C258.55 273.2 259.11 273.338 259.58 273.616C260.06 273.893 260.422 274.298 260.668 274.832V269.632H261.644ZM258.028 280.656C258.87 280.656 259.521 280.368 259.98 279.792C260.438 279.216 260.668 278.405 260.668 277.36C260.668 276.314 260.438 275.504 259.98 274.928C259.521 274.341 258.876 274.048 258.044 274.048C257.19 274.048 256.529 274.336 256.06 274.912C255.59 275.488 255.356 276.293 255.356 277.328C255.356 278.373 255.59 279.189 256.06 279.776C256.529 280.362 257.185 280.656 258.028 280.656ZM269.735 274.176V278.944C269.735 279.584 269.858 280.026 270.103 280.272C270.348 280.517 270.711 280.64 271.191 280.64C271.49 280.64 271.778 280.592 272.055 280.496V281.376C271.714 281.461 271.367 281.504 271.015 281.504C270.311 281.504 269.756 281.306 269.351 280.912C268.956 280.517 268.759 279.925 268.759 279.136V274.176H267.175V273.392H268.759V271.264L269.735 270.896V273.392H272.103V274.176H269.735ZM277.222 273.2C277.488 273.2 277.723 273.221 277.926 273.264L277.878 274.144C277.675 274.101 277.43 274.08 277.141 274.08C276.331 274.08 275.723 274.341 275.318 274.864C274.923 275.376 274.726 275.989 274.726 276.704V281.408H273.766V275.616C273.766 274.784 273.723 274.042 273.638 273.392H274.566L274.694 274.88C274.896 274.336 275.222 273.92 275.67 273.632C276.128 273.344 276.646 273.2 277.222 273.2ZM285.792 273.392V281.408H284.848V279.952C284.592 280.464 284.229 280.853 283.76 281.12C283.29 281.386 282.752 281.52 282.144 281.52C281.205 281.52 280.496 281.258 280.016 280.736C279.536 280.213 279.296 279.44 279.296 278.416V273.392H280.256V278.352C280.256 279.141 280.416 279.722 280.736 280.096C281.056 280.469 281.552 280.656 282.224 280.656C283.013 280.656 283.642 280.41 284.112 279.92C284.581 279.418 284.816 278.757 284.816 277.936V273.392H285.792ZM291.061 281.52C289.76 281.52 288.73 281.162 287.973 280.448L288.325 279.696C288.752 280.048 289.178 280.298 289.605 280.448C290.042 280.597 290.544 280.672 291.109 280.672C291.77 280.672 292.272 280.56 292.613 280.336C292.965 280.101 293.141 279.765 293.141 279.328C293.141 278.965 293.024 278.682 292.789 278.48C292.565 278.266 292.192 278.096 291.669 277.968L290.309 277.664C289.669 277.514 289.162 277.248 288.789 276.864C288.426 276.48 288.245 276.032 288.245 275.52C288.245 274.816 288.512 274.256 289.045 273.84C289.589 273.413 290.309 273.2 291.205 273.2C291.77 273.2 292.293 273.29 292.773 273.472C293.264 273.653 293.669 273.914 293.989 274.256L293.621 275.008C292.885 274.368 292.08 274.048 291.205 274.048C290.586 274.048 290.106 274.17 289.765 274.416C289.424 274.661 289.253 275.002 289.253 275.44C289.253 275.802 289.36 276.096 289.573 276.32C289.797 276.544 290.138 276.709 290.597 276.816L291.973 277.152C293.413 277.472 294.133 278.181 294.133 279.28C294.133 279.952 293.856 280.496 293.301 280.912C292.746 281.317 292 281.52 291.061 281.52ZM297.641 274.176V278.944C297.641 279.584 297.764 280.026 298.009 280.272C298.254 280.517 298.617 280.64 299.097 280.64C299.396 280.64 299.684 280.592 299.961 280.496V281.376C299.62 281.461 299.273 281.504 298.921 281.504C298.217 281.504 297.662 281.306 297.257 280.912C296.862 280.517 296.665 279.925 296.665 279.136V274.176H295.081V273.392H296.665V271.264L297.641 270.896V273.392H300.009V274.176H297.641ZM302.184 277.28V277.328C302.184 278.405 302.429 279.232 302.92 279.808C303.421 280.373 304.146 280.656 305.096 280.656C306.056 280.656 306.936 280.325 307.736 279.664L308.12 280.432C307.768 280.762 307.32 281.029 306.776 281.232C306.232 281.424 305.672 281.52 305.096 281.52C303.88 281.52 302.92 281.152 302.216 280.416C301.512 279.68 301.16 278.666 301.16 277.376C301.16 276.554 301.314 275.829 301.624 275.2C301.944 274.56 302.386 274.069 302.952 273.728C303.517 273.376 304.168 273.2 304.904 273.2C305.96 273.2 306.781 273.541 307.368 274.224C307.965 274.906 308.264 275.856 308.264 277.072V277.28H302.184ZM304.904 274C304.168 274 303.57 274.224 303.112 274.672C302.653 275.109 302.365 275.728 302.248 276.528H307.336C307.272 275.706 307.032 275.082 306.616 274.656C306.2 274.218 305.629 274 304.904 274ZM317.159 269.632V281.408H316.183V279.872C315.949 280.405 315.591 280.816 315.111 281.104C314.642 281.381 314.077 281.52 313.415 281.52C312.711 281.52 312.087 281.349 311.543 281.008C311.01 280.656 310.594 280.165 310.295 279.536C309.997 278.896 309.847 278.16 309.847 277.328C309.847 276.496 309.991 275.77 310.279 275.152C310.578 274.522 310.994 274.042 311.527 273.712C312.071 273.37 312.701 273.2 313.415 273.2C314.066 273.2 314.626 273.338 315.095 273.616C315.575 273.893 315.938 274.298 316.183 274.832V269.632H317.159ZM313.543 280.656C314.386 280.656 315.037 280.368 315.495 279.792C315.954 279.216 316.183 278.405 316.183 277.36C316.183 276.314 315.954 275.504 315.495 274.928C315.037 274.341 314.391 274.048 313.559 274.048C312.706 274.048 312.045 274.336 311.575 274.912C311.106 275.488 310.871 276.293 310.871 277.328C310.871 278.373 311.106 279.189 311.575 279.776C312.045 280.362 312.701 280.656 313.543 280.656ZM84.056 301.2C85.9867 301.2 86.952 302.234 86.952 304.304V309.408H85.976V304.368C85.976 303.568 85.8107 302.981 85.48 302.608C85.16 302.234 84.6533 302.048 83.96 302.048C83.16 302.048 82.5147 302.293 82.024 302.784C81.5333 303.274 81.288 303.936 81.288 304.768V309.408H80.328V297.632H81.288V302.784C81.544 302.261 81.912 301.866 82.392 301.6C82.872 301.333 83.4267 301.2 84.056 301.2ZM92.762 309.52C92.026 309.52 91.3753 309.349 90.81 309.008C90.2553 308.666 89.8233 308.181 89.514 307.552C89.2153 306.922 89.066 306.192 89.066 305.36C89.066 304.528 89.2153 303.797 89.514 303.168C89.8233 302.538 90.2553 302.053 90.81 301.712C91.3753 301.37 92.026 301.2 92.762 301.2C93.4873 301.2 94.1273 301.37 94.682 301.712C95.2367 302.053 95.6633 302.538 95.962 303.168C96.2713 303.797 96.426 304.528 96.426 305.36C96.426 306.192 96.2713 306.922 95.962 307.552C95.6633 308.181 95.2367 308.666 94.682 309.008C94.1273 309.349 93.4873 309.52 92.762 309.52ZM92.746 308.656C93.5993 308.656 94.2553 308.373 94.714 307.808C95.1833 307.232 95.418 306.416 95.418 305.36C95.418 304.314 95.1833 303.504 94.714 302.928C94.2447 302.341 93.594 302.048 92.762 302.048C91.9193 302.048 91.2633 302.341 90.794 302.928C90.3247 303.504 90.09 304.314 90.09 305.36C90.09 306.426 90.3193 307.242 90.778 307.808C91.2367 308.373 91.8927 308.656 92.746 308.656ZM101.17 309.52C99.869 309.52 98.8397 309.162 98.0824 308.448L98.4344 307.696C98.861 308.048 99.2877 308.298 99.7144 308.448C100.152 308.597 100.653 308.672 101.218 308.672C101.88 308.672 102.381 308.56 102.722 308.336C103.074 308.101 103.25 307.765 103.25 307.328C103.25 306.965 103.133 306.682 102.898 306.48C102.674 306.266 102.301 306.096 101.778 305.968L100.418 305.664C99.7784 305.514 99.2717 305.248 98.8984 304.864C98.5357 304.48 98.3544 304.032 98.3544 303.52C98.3544 302.816 98.621 302.256 99.1544 301.84C99.6984 301.413 100.418 301.2 101.314 301.2C101.88 301.2 102.402 301.29 102.882 301.472C103.373 301.653 103.778 301.914 104.098 302.256L103.73 303.008C102.994 302.368 102.189 302.048 101.314 302.048C100.696 302.048 100.216 302.17 99.8744 302.416C99.533 302.661 99.3624 303.002 99.3624 303.44C99.3624 303.802 99.469 304.096 99.6824 304.32C99.9064 304.544 100.248 304.709 100.706 304.816L102.082 305.152C103.522 305.472 104.242 306.181 104.242 307.28C104.242 307.952 103.965 308.496 103.41 308.912C102.856 309.317 102.109 309.52 101.17 309.52ZM110.213 301.2C110.917 301.2 111.535 301.376 112.069 301.728C112.613 302.069 113.034 302.56 113.333 303.2C113.631 303.829 113.781 304.56 113.781 305.392C113.781 306.224 113.631 306.949 113.333 307.568C113.045 308.186 112.629 308.666 112.085 309.008C111.541 309.349 110.917 309.52 110.213 309.52C109.541 309.52 108.965 309.376 108.485 309.088C108.015 308.789 107.663 308.362 107.429 307.808V312.864H106.469V303.616C106.469 302.784 106.426 302.042 106.341 301.392H107.269L107.397 302.96C107.631 302.394 107.989 301.962 108.469 301.664C108.959 301.354 109.541 301.2 110.213 301.2ZM110.085 308.656C110.927 308.656 111.583 308.373 112.053 307.808C112.522 307.232 112.757 306.426 112.757 305.392C112.757 304.346 112.522 303.53 112.053 302.944C111.583 302.346 110.933 302.048 110.101 302.048C109.247 302.048 108.591 302.336 108.133 302.912C107.674 303.488 107.445 304.304 107.445 305.36C107.445 306.405 107.674 307.216 108.133 307.792C108.591 308.368 109.242 308.656 110.085 308.656ZM115.922 301.392H116.882V309.408H115.922V301.392ZM117.074 298.08V299.328H115.778V298.08H117.074ZM120.922 302.176V306.944C120.922 307.584 121.045 308.026 121.29 308.272C121.536 308.517 121.898 308.64 122.378 308.64C122.677 308.64 122.965 308.592 123.242 308.496V309.376C122.901 309.461 122.554 309.504 122.202 309.504C121.498 309.504 120.944 309.306 120.538 308.912C120.144 308.517 119.946 307.925 119.946 307.136V302.176H118.362V301.392H119.946V299.264L120.922 298.896V301.392H123.29V302.176H120.922ZM131.753 301.392V309.408H130.777V307.872C130.542 308.405 130.185 308.816 129.705 309.104C129.236 309.381 128.67 309.52 128.009 309.52C127.294 309.52 126.665 309.354 126.121 309.024C125.588 308.682 125.172 308.202 124.873 307.584C124.585 306.954 124.441 306.224 124.441 305.392C124.441 304.56 124.59 303.829 124.889 303.2C125.188 302.56 125.604 302.069 126.137 301.728C126.681 301.376 127.305 301.2 128.009 301.2C128.66 301.2 129.22 301.338 129.689 301.616C130.169 301.893 130.532 302.298 130.777 302.832V301.392H131.753ZM128.153 308.656C128.985 308.656 129.63 308.368 130.089 307.792C130.548 307.216 130.777 306.405 130.777 305.36C130.777 304.304 130.548 303.488 130.089 302.912C129.63 302.336 128.98 302.048 128.137 302.048C127.294 302.048 126.638 302.346 126.169 302.944C125.7 303.53 125.465 304.346 125.465 305.392C125.465 306.426 125.7 307.232 126.169 307.808C126.638 308.373 127.3 308.656 128.153 308.656ZM134.406 297.632H135.366V309.408H134.406V297.632ZM140.655 309.52C139.353 309.52 138.324 309.162 137.567 308.448L137.919 307.696C138.345 308.048 138.772 308.298 139.199 308.448C139.636 308.597 140.137 308.672 140.703 308.672C141.364 308.672 141.865 308.56 142.207 308.336C142.559 308.101 142.735 307.765 142.735 307.328C142.735 306.965 142.617 306.682 142.383 306.48C142.159 306.266 141.785 306.096 141.263 305.968L139.903 305.664C139.263 305.514 138.756 305.248 138.383 304.864C138.02 304.48 137.839 304.032 137.839 303.52C137.839 302.816 138.105 302.256 138.639 301.84C139.183 301.413 139.903 301.2 140.799 301.2C141.364 301.2 141.887 301.29 142.367 301.472C142.857 301.653 143.263 301.914 143.583 302.256L143.215 303.008C142.479 302.368 141.673 302.048 140.799 302.048C140.18 302.048 139.7 302.17 139.359 302.416C139.017 302.661 138.847 303.002 138.847 303.44C138.847 303.802 138.953 304.096 139.167 304.32C139.391 304.544 139.732 304.709 140.191 304.816L141.567 305.152C143.007 305.472 143.727 306.181 143.727 307.28C143.727 307.952 143.449 308.496 142.895 308.912C142.34 309.317 141.593 309.52 140.655 309.52Z" fill="#7D7987"/>
<g clip-path="url(#clip0_63_2663)">
<path d="M133.216 107.315L124.138 115.98L85.8034 152.566C84.797 153.529 83.506 154.01 82.215 154.01C80.802 154.01 79.3889 153.437 78.3622 152.3C76.3393 150.067 76.6036 146.574 78.9315 144.669L124.138 107.827L129.119 103.771L133.216 107.315Z" fill="url(#paint0_linear_63_2663)"/>
<path d="M123.741 116.421L114.806 124.942L113.982 116.185L118.872 112.201L123.741 116.421Z" fill="#3A81D6" fill-opacity="0.8"/>
<path d="M168.978 93.9078C168.978 110.429 155.681 123.826 139.295 123.826C128.966 123.826 119.868 118.51 114.552 110.439C111.431 105.707 109.611 100.023 109.611 93.9078C109.611 77.3868 122.908 64 139.295 64C146.695 64 153.455 66.7245 158.65 71.2311C164.973 76.7211 168.978 84.8433 168.978 93.9078Z" fill="url(#paint1_linear_63_2663)"/>
<path d="M139.295 117.209C152.067 117.209 162.421 106.777 162.421 93.9078C162.421 81.0387 152.067 70.6063 139.295 70.6063C126.522 70.6063 116.168 81.0387 116.168 93.9078C116.168 106.777 126.522 117.209 139.295 117.209Z" fill="white"/>
<path opacity="0.06" d="M168.978 93.9078C168.978 110.429 155.681 123.826 139.295 123.826C128.966 123.826 119.868 118.51 114.552 110.439C148.027 107.694 156.851 79.1178 158.66 71.2311C164.973 76.7211 168.978 84.8433 168.978 93.9078Z" fill="#1A6FB5" fill-opacity="0.5"/>
<path d="M139.295 93.959C141.978 93.959 144.154 91.7672 144.154 89.0632C144.154 86.3592 141.978 84.1673 139.295 84.1673C136.611 84.1673 134.435 86.3592 134.435 89.0632C134.435 91.7672 136.601 93.959 139.295 93.959ZM139.295 96.407C136.052 96.407 129.576 98.0458 129.576 101.303V102.532C129.576 103.208 130.125 103.761 130.796 103.761H147.813C148.484 103.761 149.033 103.208 149.033 102.532V101.303C149.013 98.056 142.537 96.407 139.295 96.407Z" fill="url(#paint2_linear_63_2663)"/>
</g>
<defs>
<filter id="filter0_d_63_2663" x="0" y="0" width="450" height="454" filterUnits="userSpaceOnUse" color-interpolation-filters="sRGB">
<feFlood flood-opacity="0" result="BackgroundImageFix"/>
<feColorMatrix in="SourceAlpha" type="matrix" values="0 0 0 0 0 0 0 0 0 0 0 0 0 0 0 0 0 0 127 0" result="hardAlpha"/>
<feOffset dx="10" dy="40"/>
<feGaussianBlur stdDeviation="25"/>
<feColorMatrix type="matrix" values="0 0 0 0 0.897151 0 0 0 0 0.915421 0 0 0 0 0.962796 0 0 0 0.4 0"/>
<feBlend mode="normal" in2="BackgroundImageFix" result="effect1_dropShadow_63_2663"/>
<feBlend mode="normal" in="SourceGraphic" in2="effect1_dropShadow_63_2663" result="shape"/>
</filter>
<linearGradient id="paint0_linear_63_2663" x1="82.6747" y1="148.327" x2="130.924" y2="104.792" gradientUnits="userSpaceOnUse">
<stop stop-color="#67C3F3"/>
<stop offset="1" stop-color="#5A98F2"/>
</linearGradient>
<linearGradient id="paint1_linear_63_2663" x1="127.017" y1="66.1134" x2="149.782" y2="116.905" gradientUnits="userSpaceOnUse">
<stop stop-color="#67C3F3"/>
<stop offset="1" stop-color="#5A98F2"/>
</linearGradient>
<linearGradient id="paint2_linear_63_2663" x1="132.269" y1="92.3947" x2="149.92" y2="100.939" gradientUnits="userSpaceOnUse">
<stop stop-color="#B0F4FF"/>
<stop offset="0.071077" stop-color="#A6F1FF"/>
<stop offset="0.2937" stop-color="#8BE8FD"/>
<stop offset="0.5209" stop-color="#78E1FD"/>
<stop offset="0.7536" stop-color="#6DDDFC"/>
<stop offset="1" stop-color="#69DCFC"/>
</linearGradient>
<clipPath id="clip0_63_2663">
<rect width="91.978" height="90" fill="white" transform="translate(77 64)"/>
</clipPath>
</defs>
</svg>
